<svg width="84" height="84" viewBox="0 0 84 84" fill="none" xmlns="http://www.w3.org/2000/svg">
<g clip-path="url(#clip0)">
<path opacity="0.3" d="M82.9662 62.566L72.9545 56.7858C72.3073 56.412 71.5342 56.4122 70.8868 56.7858C70.2394 57.1595 69.8529 57.8289 69.8529 58.5763V59.554H62.7582C66.8886 54.7004 69.1358 48.6289 69.1358 42.1719C69.1358 39.0977 68.6157 36.1423 67.6592 33.3873C71.513 32.0993 74.6355 28.9857 75.8121 24.9542C76.0026 24.3017 75.6282 23.6186 74.9757 23.4282C74.3223 23.2379 73.6399 23.6125 73.4498 24.2646C72.1937 28.5678 68.1837 31.5733 63.6984 31.5733C58.0963 31.5733 53.5385 27.0156 53.5385 21.4134C53.5385 15.8112 58.0962 11.2535 63.6984 11.2535C68.4672 11.2535 72.5389 14.497 73.5999 19.1413C73.7512 19.8038 74.4109 20.2182 75.0734 20.0668C75.7358 19.9155 76.1503 19.2556 75.999 18.5932C75.3728 15.8518 73.8171 13.3643 71.6189 11.5888C69.3865 9.78563 66.5734 8.79272 63.6986 8.79272C58.2791 8.79272 53.6475 12.2269 51.8629 17.0329C48.8043 15.8413 45.4781 15.1848 42 15.1848H23.4609C22.7814 15.1848 22.2305 15.7357 22.2305 16.4152C22.2305 17.0948 22.7814 17.6457 23.4609 17.6457H42C45.264 17.6457 48.3811 18.2805 51.2351 19.43C51.1325 20.0765 51.0779 20.7386 51.0779 21.4134C51.0779 21.9502 51.1155 22.4782 51.1809 22.9977C48.4007 21.6583 45.287 20.9053 42 20.9053C39.3072 20.9053 36.7305 21.4104 34.3581 22.329H12.9165C12.2369 22.329 11.686 22.88 11.686 23.5595V25.0864L2.8542 19.9874L11.686 14.8883V16.4152C11.686 17.0948 12.2369 17.6457 12.9165 17.6457H17.7188C18.3983 17.6457 18.9492 17.0948 18.9492 16.4152C18.9492 15.7357 18.3983 15.1848 17.7188 15.1848H14.1469V14.2071C14.1469 13.4596 13.7606 12.7903 13.1132 12.4164C12.466 12.0426 11.6929 12.0426 11.0455 12.4164L1.03392 18.1966C0.386367 18.5704 0 19.2397 0 19.9874C0 20.735 0.386367 21.4042 1.03376 21.7779L11.0455 27.5582C11.3692 27.7451 11.7242 27.8384 12.0793 27.8384C12.4343 27.8384 12.7895 27.7449 13.1132 27.5582C13.7606 27.1845 14.1469 26.5151 14.1469 25.7675V24.7898H21.2392C17.1096 29.6434 14.8641 35.7154 14.8641 42.1719C14.8641 45.1258 15.3454 47.9697 16.2317 50.6319C11.2475 52.3201 7.64859 57.0394 7.64859 62.5865C7.64859 69.5456 13.3102 75.2074 20.2694 75.2074C25.5796 75.2074 30.1311 71.9092 31.9914 67.2551C35.09 68.4824 38.4668 69.159 42.0002 69.159H55.1252C55.8049 69.159 56.3556 68.6081 56.3556 67.9286C56.3556 67.249 55.8049 66.6981 55.1252 66.6981H42.0002C38.7028 66.6981 35.5556 66.0502 32.678 64.8783C32.8151 64.1345 32.8903 63.3693 32.8903 62.5865C32.8903 62.1414 32.8665 61.7017 32.8212 61.2684C35.6009 62.6074 38.7138 63.3601 42.0002 63.3601C44.615 63.3601 47.1202 62.8836 49.4353 62.0151H71.0835C71.7632 62.0151 72.314 61.4642 72.314 60.7846V59.2577L81.146 64.3568L72.314 69.4558V67.9287C72.314 67.2492 71.7632 66.6983 71.0835 66.6983H60.8672C60.1875 66.6983 59.6367 67.2492 59.6367 67.9287C59.6367 68.6083 60.1875 69.1592 60.8672 69.1592H69.8531V70.137C69.8531 70.8845 70.2394 71.5538 70.887 71.9276C71.2107 72.1144 71.5657 72.2078 71.9209 72.2078C72.2759 72.2078 72.631 72.1144 72.9547 71.9276L82.9664 66.1473C83.6136 65.7736 84.0002 65.1042 84.0002 64.3568C84.0002 63.6093 83.6136 62.9398 82.9662 62.566ZM65.2418 33.9381C66.0357 36.1451 66.5216 38.4964 66.644 40.9416H63.1929C63.0536 38.4365 62.4771 36.0468 61.5402 33.8457C62.2422 33.9673 62.9626 34.0342 63.6987 34.0342C64.219 34.0341 64.7341 34.0014 65.2418 33.9381ZM17.3252 42.1721C17.3252 35.5786 19.9034 29.4257 24.5944 24.79H29.7731C24.3321 28.6372 20.7726 34.9769 20.7726 42.1327C20.7726 44.9644 21.3327 47.667 22.3438 50.1393C21.6684 50.027 20.976 49.9658 20.2693 49.9658C19.7172 49.9658 19.1746 50.0054 18.6411 50.0745C17.7891 47.5937 17.3252 44.9359 17.3252 42.1721ZM20.2693 72.7464C14.6672 72.7464 10.1094 68.1888 10.1094 62.5865C10.1094 56.9843 14.667 52.4266 20.2693 52.4266C25.8715 52.4266 30.4292 56.9843 30.4292 62.5865C30.4292 68.1888 25.8715 72.7464 20.2693 72.7464ZM32.034 58.0262C30.8447 54.9688 28.4981 52.487 25.5334 51.1205C24.0694 48.4494 23.2335 45.3875 23.2335 42.1327C23.2335 31.7848 31.6521 23.3662 42 23.3662C45.7004 23.3662 49.1531 24.4441 52.0631 26.3007C53.2675 29.1571 55.4941 31.4801 58.2821 32.8105C59.8618 35.5585 60.7663 38.7418 60.7663 42.1327C60.7663 52.4806 52.3477 60.8991 41.9998 60.8991C38.3407 60.8991 34.9237 59.845 32.034 58.0262ZM63.1883 43.4024H66.6448C66.3447 49.5285 63.8039 55.2078 59.406 59.554H54.1134C59.2924 55.9422 62.7921 50.0835 63.1883 43.4024Z" fill="#27FB82"/>
<path d="M42 26.8796C33.5895 26.8796 26.7471 33.722 26.7471 42.1325C26.7471 50.543 33.5895 57.3854 42 57.3854C50.4105 57.3854 57.2529 50.543 57.2529 42.1325C57.2529 33.722 50.4105 26.8796 42 26.8796ZM42 54.9245C34.9465 54.9245 29.208 49.1861 29.208 42.1325C29.208 35.079 34.9465 29.3406 42 29.3406C49.0534 29.3406 54.7919 35.0792 54.7919 42.1325C54.7919 49.1859 49.0534 54.9245 42 54.9245Z" fill="#1E603D"/>
<path d="M43.6114 40.9022H40.3886C39.4592 40.9022 38.7032 40.1462 38.7032 39.2168C38.7032 38.2874 39.4592 37.5314 40.3886 37.5314H46.067C46.7467 37.5314 47.2974 36.9804 47.2974 36.3009C47.2974 35.6213 46.7467 35.0704 46.067 35.0704H43.2305V33.3082C43.2305 32.6287 42.6797 32.0778 42 32.0778C41.3205 32.0778 40.7696 32.6287 40.7696 33.3082V35.0704H40.3886C38.1022 35.0704 36.2422 36.9304 36.2422 39.2168C36.2422 41.5031 38.1022 43.3631 40.3886 43.3631H43.6114C44.5407 43.3631 45.2967 44.1191 45.2967 45.0485C45.2967 45.978 44.5407 46.734 43.6114 46.734H37.9331C37.2535 46.734 36.7026 47.2849 36.7026 47.9644C36.7026 48.644 37.2535 49.1949 37.9331 49.1949H40.7696V50.9571C40.7696 51.6366 41.3205 52.1876 42 52.1876C42.6797 52.1876 43.2305 51.6366 43.2305 50.9571V49.1949H43.6114C45.8978 49.1949 47.7576 47.3349 47.7576 45.0485C47.7576 42.7622 45.8978 40.9022 43.6114 40.9022Z" fill="#FFE925"/>
<path opacity="0.5" d="M63.6988 29.8117C64.3785 29.8117 64.9292 29.2608 64.9292 28.5812V27.3808H65.0078C66.9923 27.3808 68.6068 25.7662 68.6068 23.7817C68.6068 21.7972 66.9923 20.1827 65.0078 20.1827H62.3897C61.7622 20.1827 61.2516 19.6721 61.2516 19.0446C61.2516 18.4171 61.762 17.9065 62.3897 17.9065H67.0021C67.6819 17.9065 68.2326 17.3556 68.2326 16.676C68.2326 15.9965 67.6819 15.4456 67.0021 15.4456H64.9291V14.2451C64.9291 13.5656 64.3783 13.0146 63.6986 13.0146C63.0189 13.0146 62.4681 13.5656 62.4681 14.2451V15.4456H62.3895C60.405 15.4456 58.7905 17.0601 58.7905 19.0446C58.7905 21.0291 60.405 22.6436 62.3895 22.6436H65.0075C65.635 22.6436 66.1456 23.1542 66.1456 23.7817C66.1456 24.4093 65.6352 24.9198 65.0075 24.9198H60.395C59.7153 24.9198 59.1646 25.4708 59.1646 26.1503C59.1646 26.8299 59.7153 27.3808 60.395 27.3808H62.4681V28.5812C62.4683 29.2609 63.019 29.8117 63.6988 29.8117Z" fill="#27E4FB"/>
<path opacity="0.5" d="M21.5783 61.3562H18.9604C18.3328 61.3562 17.8223 60.8456 17.8223 60.2181C17.8223 59.5905 18.3328 59.08 18.9604 59.08H23.5728C24.2524 59.08 24.8033 58.529 24.8033 57.8495C24.8033 57.1699 24.2524 56.619 23.5728 56.619H21.4997V55.4186C21.4997 54.739 20.9488 54.1881 20.2693 54.1881C19.5897 54.1881 19.0388 54.739 19.0388 55.4186V56.619H18.9604C16.9759 56.619 15.3613 58.2336 15.3613 60.2181C15.3613 62.2026 16.9759 63.8171 18.9604 63.8171H21.5783C22.2059 63.8171 22.7164 64.3277 22.7164 64.9552C22.7164 65.5827 22.2059 66.0933 21.5783 66.0933H16.9659C16.2863 66.0933 15.7354 66.6442 15.7354 67.3238C15.7354 68.0033 16.2863 68.5542 16.9659 68.5542H19.0388V69.7547C19.0388 70.4342 19.5897 70.9852 20.2693 70.9852C20.9488 70.9852 21.4997 70.4342 21.4997 69.7547V68.5542H21.5783C23.5628 68.5542 25.1774 66.9397 25.1774 64.9552C25.1774 62.9707 23.5628 61.3562 21.5783 61.3562Z" fill="#27E4FB"/>
<path d="M19.5234 12.2227H36.5859C37.2655 12.2227 37.8164 11.6717 37.8164 10.9922C37.8164 10.3126 37.2655 9.76172 36.5859 9.76172H19.5234C18.8439 9.76172 18.293 10.3126 18.293 10.9922C18.293 11.6717 18.8439 12.2227 19.5234 12.2227Z" fill="#27FB82"/>
<path d="M62.5078 71.7773H45.4453C44.7656 71.7773 44.2148 72.3283 44.2148 73.0078C44.2148 73.6874 44.7656 74.2383 45.4453 74.2383H62.5078C63.1875 74.2383 63.7383 73.6874 63.7383 73.0078C63.7383 72.3283 63.1875 71.7773 62.5078 71.7773Z" fill="#27FB82"/>
</g>
<defs>
<clipPath id="clip0">
<rect width="84" height="84" fill="white"/>
</clipPath>
</defs>
</svg>
