<svg width="84" height="84" viewBox="0 0 84 84" fill="none" xmlns="http://www.w3.org/2000/svg">
<path d="M23.0265 70.687C23.7062 70.687 24.257 70.1361 24.257 69.4565V68.2851H24.32C26.2889 68.2851 27.8908 66.6832 27.8908 64.7143C27.8908 62.7454 26.2889 61.1435 24.32 61.1435H21.7334C21.1214 61.1435 20.6233 60.6456 20.6233 60.0336C20.6233 59.4217 21.1212 58.9237 21.7334 58.9237H26.2908C26.9706 58.9237 27.5213 58.3728 27.5213 57.6933C27.5213 57.0137 26.9706 56.4628 26.2908 56.4628H24.2571V55.2914C24.2571 54.6118 23.7064 54.0609 23.0267 54.0609C22.3469 54.0609 21.7962 54.6118 21.7962 55.2914V56.4628H21.7334C19.7643 56.4628 18.1624 58.0647 18.1624 60.0336C18.1624 62.0025 19.7643 63.6044 21.7334 63.6044H24.3201C24.9321 63.6044 25.43 64.1024 25.43 64.7143C25.43 65.3263 24.9322 65.8242 24.3201 65.8242H19.7626C19.0829 65.8242 18.5322 66.3751 18.5322 67.0547C18.5322 67.7342 19.0829 68.2851 19.7626 68.2851H21.7964V69.4565C21.796 70.1361 22.3469 70.687 23.0265 70.687Z" fill="#FFE925"/>
<path opacity="0.3" d="M82.7695 73.1786H78.937V46.737C78.937 46.0574 78.3863 45.5065 77.7066 45.5065C77.0268 45.5065 76.4761 46.0574 76.4761 46.737V73.1786H73.4271V34.3258H76.4761V40.9948C76.4761 41.6743 77.0268 42.2252 77.7066 42.2252C78.3863 42.2252 78.937 41.6743 78.937 40.9948V33.9163C78.937 32.7851 78.0168 31.8649 76.8854 31.8649H73.0178C71.8864 31.8649 70.9662 32.7851 70.9662 33.9163V73.1784H68.2848V42.4221C68.2848 41.2909 67.3645 40.3707 66.2333 40.3707H62.3657C61.2343 40.3707 60.3141 41.2909 60.3141 42.4221V73.1786H57.6327V47.4851C57.6327 46.3539 56.7125 45.4336 55.5811 45.4336H51.7136C50.5823 45.4336 49.662 46.3539 49.662 47.4851V73.1786H46.9806V59.2311C46.9806 58.0999 46.0604 57.1795 44.929 57.1795H41.0616C39.9302 57.1795 39.01 58.0999 39.01 59.2311V73.1786H30.7191C30.8285 73.1005 30.9379 73.0224 31.0454 72.9407C33.2909 71.2331 34.9629 68.8091 35.7536 66.1149C35.9451 65.4627 35.5717 64.7791 34.9195 64.5876C34.2672 64.3962 33.5836 64.7697 33.3923 65.4217C32.0517 69.9889 27.7892 73.1786 23.0265 73.1786C17.0689 73.1786 12.222 68.3317 12.222 62.3741C12.222 56.4165 17.0689 51.5696 23.0265 51.5696C28.1703 51.5696 32.6273 55.2265 33.6238 60.2649C33.7557 60.9315 34.4029 61.3654 35.0697 61.2332C35.7362 61.1013 36.1699 60.4539 36.038 59.7873C34.8943 54.0056 30.0411 49.7062 24.257 49.1669V45.7562L26.3893 43.6239C31.4798 43.2211 36.2521 41.023 39.8729 37.4023C43.3351 33.9401 45.5259 29.3557 46.0415 24.4935C46.1073 23.8724 45.8922 23.2631 45.451 22.8221C45.01 22.3811 44.4022 22.165 43.7794 22.2316C38.9174 22.7472 34.3332 24.938 30.8706 28.4003C27.2501 32.0209 25.052 36.7931 24.6491 41.8838L24.257 42.2759V36.3664C24.257 35.6869 23.7062 35.1359 23.0265 35.1359C22.3468 35.1359 21.796 35.6869 21.796 36.3664V42.2759L21.4041 41.884C21.0011 36.7933 18.8029 32.0209 15.1823 28.4003C11.72 24.938 7.13556 22.7472 2.27357 22.2316C1.6521 22.1653 1.0431 22.3809 0.602102 22.8221C0.161102 23.2632 -0.0541483 23.8724 0.0116408 24.4935C0.527125 29.3555 2.71785 33.9399 6.18023 37.4023C9.80109 41.023 14.5733 43.2211 19.6637 43.6239L21.796 45.7562V49.1679C15.0565 49.791 9.76105 55.4746 9.76105 62.3741C9.76105 69.6886 15.7119 75.6395 23.0265 75.6395H82.7695C83.4492 75.6395 84 75.0886 84 74.409C84 73.7295 83.4491 73.1786 82.7695 73.1786ZM32.611 30.1402C35.5564 27.1948 39.4181 25.2889 43.5338 24.7391C42.9839 28.8546 41.078 32.7168 38.1327 35.6621C35.6933 38.1015 32.6632 39.8096 29.3682 40.645L36.7513 33.2618C37.2318 32.7813 37.2318 32.0022 36.7513 31.5218C36.2706 31.0413 35.4916 31.0413 35.0111 31.5218L27.6281 38.9048C28.4635 35.6096 30.1716 32.5795 32.611 30.1402ZM9.30168 33.2617L16.6848 40.6448C13.39 39.8094 10.3599 38.1014 7.92044 35.6621C4.97502 32.7168 3.06911 28.8546 2.51934 24.7391C6.63468 25.2889 10.4967 27.195 13.442 30.1402C15.8814 32.5795 17.5895 35.6096 18.4249 38.9046L11.0419 31.5216C10.5612 31.0411 9.78222 31.0411 9.30168 31.5216C8.82114 32.002 8.82114 32.7811 9.30168 33.2617ZM62.7752 42.8316H65.824V73.1786H62.7752V42.8316ZM52.1231 47.8946H55.1719V73.1786H52.1231V47.8946ZM41.4711 59.6405H44.5198V73.1786H41.4711V59.6405Z" fill="#27FB82"/>
<path d="M67.641 14.0982L39.8066 41.9325C39.0636 42.6756 38.6544 43.6634 38.6544 44.714C38.6544 45.7647 39.0636 46.7525 39.8066 47.4955C40.5735 48.2622 41.5806 48.6456 42.588 48.6456C43.5953 48.6456 44.6025 48.2622 45.3695 47.4954L52.6158 40.2489C53.0964 39.7684 53.0964 38.9892 52.6158 38.5089C52.1353 38.0283 51.3563 38.0283 50.8756 38.5089L43.6295 45.7552C43.0549 46.3294 42.1207 46.3294 41.5468 45.7552C41.2686 45.4771 41.1154 45.1071 41.1154 44.7139C41.1154 44.3206 41.2686 43.9506 41.5468 43.6726L69.9029 15.3163C70.2284 14.991 70.4077 14.5584 70.4077 14.098C70.4077 13.6378 70.2284 13.2052 69.9031 12.88L69.0898 12.0666L76.3248 10.9651L75.1708 18.1475L74.4222 17.3988C73.7502 16.7271 72.6575 16.7269 71.9859 17.3988L54.9358 34.4486C54.4553 34.9292 54.4553 35.7083 54.9358 36.1887C55.4164 36.6692 56.1953 36.6692 56.676 36.1887L73.2037 19.661L74.452 20.9095C74.9119 21.3692 75.5818 21.5305 76.2006 21.3302C76.8193 21.1299 77.2677 20.6067 77.371 19.9645L78.9149 10.3561C79.0017 9.81465 78.823 9.25897 78.437 8.86981C78.0508 8.48066 77.497 8.2974 76.9547 8.37992L67.2761 9.85353C66.6302 9.9518 66.1024 10.3985 65.8986 11.0192C65.695 11.64 65.8553 12.3127 66.3175 12.7747L67.641 14.0982Z" fill="#27FB82"/>
</svg>
