<svg width="84" height="84" viewBox="0 0 84 84" fill="none" xmlns="http://www.w3.org/2000/svg">
<g clip-path="url(#clip0)">
<path d="M16.5611 66.4987H18.9645C19.485 66.4987 19.9085 66.9223 19.9085 67.4427C19.9085 67.9631 19.485 68.3868 18.9645 68.3868H14.73C14.0503 68.3868 13.4995 68.9377 13.4995 69.6172C13.4995 70.2968 14.0503 70.8477 14.73 70.8477H16.5322V71.849C16.5322 72.5285 17.083 73.0794 17.7627 73.0794C18.4424 73.0794 18.9932 72.5285 18.9932 71.849V70.8462C20.8572 70.8306 22.3694 69.3104 22.3694 67.4426C22.3694 65.565 20.8418 64.0376 18.9645 64.0376H16.5611C16.0405 64.0376 15.6171 63.6142 15.6171 63.0936C15.6171 62.573 16.0405 62.1496 16.5611 62.1496H20.7959C21.4756 62.1496 22.0264 61.5987 22.0264 60.9191C22.0264 60.2396 21.4756 59.6886 20.7959 59.6886H18.9933V58.6874C18.9933 58.0078 18.4426 57.4569 17.7629 57.4569C17.0831 57.4569 16.5324 58.0078 16.5324 58.6874V59.6901C14.6683 59.7059 13.1563 61.2259 13.1563 63.0936C13.1561 64.9713 14.6837 66.4987 16.5611 66.4987Z" fill="#FFE925"/>
<path opacity="0.3" d="M79.4453 30.9611C76.9338 30.9611 74.8908 33.0044 74.8908 35.5157C74.8908 36.4618 75.181 37.3415 75.6768 38.0705L71.9954 41.7519C71.2663 41.2561 70.3867 40.9657 69.4406 40.9657C68.1435 40.9657 66.9721 41.5117 66.1418 42.3847L59.1312 37.3419C59.3772 36.7824 59.5147 36.1649 59.5147 35.5155C59.5147 33.004 57.4716 30.961 54.9601 30.961C52.5139 30.961 50.5127 32.8997 50.4103 35.3211C47.7935 32.8551 44.27 31.3414 40.3991 31.3414C39.9005 31.3414 39.4076 31.3667 38.9219 31.4158L36.411 29.5684C37.0678 28.9271 37.4775 28.0338 37.4775 27.0455C37.4775 26.1674 37.1531 25.3651 36.6206 24.7469C37.1531 24.1288 37.4775 23.3265 37.4775 22.4484C37.4775 20.7807 36.3133 19.3829 34.756 19.0164L39.0748 10.8089C39.3916 10.2071 39.3709 9.49996 39.0193 8.9177C38.6677 8.33528 38.052 7.98763 37.3716 7.98763H33.6623C33.6034 7.87755 33.5355 7.7714 33.4546 7.6728C33.0876 7.22441 32.5448 6.96716 31.9653 6.96716H25.5314C24.9518 6.96716 24.4087 7.22441 24.0417 7.67312C23.961 7.77173 23.8931 7.87771 23.8343 7.98763H20.1251C19.4449 7.98763 18.829 8.33528 18.4774 8.91737C18.1258 9.49947 18.105 10.2066 18.4216 10.8085L22.7405 19.0164C21.1833 19.3829 20.0191 20.7809 20.0191 22.4484C20.0191 23.3265 20.3434 24.1288 20.876 24.7469C20.3434 25.3651 20.0191 26.1674 20.0191 27.0455C20.0191 28.0338 20.4286 28.9271 21.0853 29.5683L12.4289 35.937H2.59777C1.1655 35.9373 0 37.1027 0 38.5351V40.6641C0 41.1662 0.145523 41.6337 0.393094 42.0314C0.145523 42.4291 0 42.8967 0 43.3987V45.5278C0 46.0298 0.145523 46.4974 0.393094 46.8951C0.145523 47.2927 0 47.7603 0 48.2624V50.3914C0 50.8934 0.145523 51.361 0.393094 51.7587C0.145523 52.1564 0 52.624 0 53.126V55.255C0 55.7571 0.145523 56.2246 0.393094 56.6223C0.145523 57.02 0 57.4876 0 57.9896V60.1187C0 60.6207 0.145523 61.0883 0.393094 61.486C0.145523 61.8836 0 62.3512 0 62.8533V64.9823C0 65.4843 0.145523 65.9519 0.393094 66.3496C0.145523 66.7473 0 67.2149 0 67.7169V69.8459C0 71.2784 1.1655 72.4437 2.59777 72.4437H8.44955C10.6027 75.2319 13.9755 77.0327 17.7627 77.0327C21.5499 77.0327 24.9229 75.2319 27.0761 72.4437H32.8125C33.4922 72.4437 34.043 71.8928 34.043 71.2132C34.043 70.5337 33.4922 69.9828 32.8125 69.9828H28.538C29.1724 68.5383 29.5271 66.9443 29.5271 65.2684C29.5271 59.4376 25.2622 54.5865 19.6886 53.6644V53.1262C19.6886 52.6241 19.5431 52.1565 19.2956 51.7589C19.5431 51.3612 19.6886 50.8936 19.6886 50.3916V48.2625C19.6886 47.7605 19.5431 47.2929 19.2956 46.8952C19.5431 46.4975 19.6886 46.03 19.6886 45.5279V43.3989C19.6886 42.8969 19.5431 42.4293 19.2956 42.0316C19.5431 41.6339 19.6886 41.1663 19.6886 40.6643V38.5353C19.6886 37.1028 18.5231 35.9375 17.0909 35.9375H16.5815L23.8703 30.5748H33.6259L35.7149 32.1117C29.9494 34.0683 25.7893 39.5331 25.7893 45.9514C25.7893 54.0072 32.3431 60.5611 40.3991 60.5611C43.1988 60.5611 45.8166 59.7689 48.0414 58.3978L51.7212 62.0776C51.4879 63.7461 50.797 65.3349 49.6912 66.6657C47.94 68.7738 45.3638 69.9828 42.6233 69.9828H38.5547C37.875 69.9828 37.3242 70.5337 37.3242 71.2132C37.3242 71.8928 37.875 72.4437 38.5547 72.4437H42.6234C46.0979 72.4437 49.3641 70.9109 51.5844 68.2384C52.3207 67.3523 52.9074 66.3742 53.3454 65.3403L61.4043 73.399C62.2752 74.2699 63.4328 74.7494 64.6643 74.7494C65.8959 74.7494 67.0535 74.2699 67.9243 73.399C69.7218 71.6016 69.7218 68.6768 67.9242 66.8792L66.1269 65.0819C65.6465 64.6012 64.8674 64.6013 64.3868 65.0819C63.9063 65.5624 63.9063 66.3415 64.387 66.8219L66.1841 68.6192C67.0222 69.4573 67.0222 70.8208 66.1841 71.6588C65.7782 72.0649 65.2385 72.2883 64.6643 72.2883C64.0902 72.2883 63.5504 72.0647 63.1444 71.6588L55.0062 63.5208L58.046 60.4812L60.3264 62.7615C60.8068 63.2422 61.5859 63.2421 62.0665 62.7615C62.547 62.281 62.547 61.5019 62.0663 61.0215L59.5286 58.4839C59.1326 58.0877 58.6059 57.8695 58.0458 57.8695C57.7758 57.8695 57.5139 57.9214 57.2703 58.0183L52.8455 53.5936C54.2166 51.3687 55.0088 48.7509 55.0088 45.9514C55.0088 43.7897 54.5365 41.7366 53.6903 39.8889C54.0937 40.0062 54.5194 40.0704 54.9601 40.0704C55.9287 40.0704 56.827 39.7656 57.5661 39.2479L64.9834 44.5833C64.9199 44.8859 64.8859 45.1993 64.8859 45.5205C64.8859 48.032 66.9291 50.0752 69.4406 50.0752C71.9521 50.0752 73.9951 48.032 73.9951 45.5205C73.9951 44.8503 73.8485 44.2141 73.5874 43.6406L77.5653 39.6627C78.1389 39.9237 78.7751 40.0706 79.4453 40.0706C81.9568 40.0706 84 38.0273 84 35.516C84 33.0047 81.9568 30.9611 79.4453 30.9611ZM2.46094 48.2624C2.46094 48.1869 2.5223 48.1255 2.59777 48.1255H17.091C17.1665 48.1255 17.2279 48.1869 17.2279 48.2624V50.3914C17.2279 50.4669 17.1665 50.5282 17.091 50.5282H2.59777C2.5223 50.5282 2.46094 50.4669 2.46094 50.3914V48.2624ZM2.46094 53.126C2.46094 53.0505 2.5223 52.9892 2.59777 52.9892H17.091C17.1665 52.9892 17.2279 53.0505 17.2279 53.126V53.5176C15.0803 53.6142 13.0822 54.2907 11.3831 55.3919H2.59777C2.5223 55.3919 2.46094 55.3305 2.46094 55.255V53.126ZM2.46094 62.8533C2.46094 62.7778 2.5223 62.7164 2.59777 62.7164H6.28064C6.10837 63.4918 6.01273 64.2952 6.00239 65.1191H2.59777C2.5223 65.1191 2.46094 65.0578 2.46094 64.9823V62.8533ZM2.59777 69.9828C2.5223 69.9828 2.46094 69.9214 2.46094 69.8459V67.7169C2.46094 67.6414 2.5223 67.5801 2.59777 67.5801H6.22781C6.39516 68.4164 6.65273 69.2202 6.98759 69.9828H2.59777ZM7.12277 60.2555H2.59777C2.5223 60.2555 2.46094 60.1941 2.46094 60.1187V57.9896C2.46094 57.9142 2.5223 57.8528 2.59777 57.8528H8.63855C8.04152 58.586 7.53129 59.392 7.12277 60.2555ZM27.0664 65.2684C27.0664 70.3983 22.893 74.5719 17.7629 74.5719C12.633 74.5719 8.45955 70.3985 8.45955 65.2684C8.45955 60.1383 12.633 55.9649 17.7629 55.9649C22.8928 55.9649 27.0664 60.1385 27.0664 65.2684ZM17.2279 38.5351V40.6641C17.2279 40.7396 17.1665 40.801 17.091 40.801H14.1094C13.4297 40.801 12.8789 41.3519 12.8789 42.0314C12.8789 42.711 13.4297 43.2619 14.1094 43.2619H17.091C17.1665 43.2619 17.2279 43.3233 17.2279 43.3987V45.5278C17.2279 45.6032 17.1665 45.6646 17.091 45.6646H2.59777C2.5223 45.6646 2.46094 45.6032 2.46094 45.5278V43.3987C2.46094 43.3233 2.5223 43.2619 2.59777 43.2619H8.36719C9.0469 43.2619 9.59766 42.711 9.59766 42.0314C9.59766 41.3519 9.0469 40.801 8.36719 40.801H2.59777C2.5223 40.801 2.46094 40.7396 2.46094 40.6641V38.5351C2.46094 38.4596 2.5223 38.3983 2.59777 38.3983H17.091C17.1665 38.3983 17.2279 38.4596 17.2279 38.5351ZM33.6144 10.4486H36.4834L32.026 18.9196H31.9054L33.6144 10.4486ZM31.31 9.4281L29.3951 18.9196H28.1016L26.1867 9.4281H31.31ZM21.0131 10.4486H23.8821L25.5911 18.9196H25.4705L21.0131 10.4486ZM23.5481 21.3805H33.9486C34.5376 21.3805 35.0167 21.8596 35.0167 22.4486C35.0167 23.0376 34.5376 23.5166 33.9486 23.5166H23.5481C22.9591 23.5166 22.48 23.0376 22.48 22.4486C22.48 21.8596 22.9591 21.3805 23.5481 21.3805ZM23.5481 25.9776H33.9486C34.5376 25.9776 35.0167 26.4566 35.0167 27.0456C35.0167 27.6346 34.5376 28.1137 33.9486 28.1137H23.5481C22.9591 28.1137 22.48 27.6346 22.48 27.0456C22.48 26.4566 22.9591 25.9776 23.5481 25.9776ZM28.2504 45.9512C28.2504 39.2524 33.7004 33.8024 40.3992 33.8024C43.9105 33.8024 47.0768 35.3014 49.2968 37.691L48.215 38.5256C46.2481 36.4563 43.4728 35.1623 40.3992 35.1623C34.4502 35.1623 29.6103 40.0021 29.6103 45.9512C29.6103 51.9003 34.4502 56.7401 40.3992 56.7401C46.3483 56.7401 51.1882 51.9003 51.1882 45.9512C51.1882 43.9592 50.6433 42.0928 49.698 40.4896L50.7839 39.6519C51.903 41.4899 52.5481 43.6465 52.5481 45.9512C52.5481 52.65 47.0981 58.1 40.3992 58.1C33.7004 58.1 28.2504 52.6502 28.2504 45.9512ZM42.493 45.9991C42.493 47.1536 41.5537 48.0927 40.3992 48.0927C39.2449 48.0927 38.3056 47.1535 38.3056 45.9991C38.3056 44.8448 39.2449 43.9055 40.3992 43.9055C41.5537 43.9055 42.493 44.8446 42.493 45.9991ZM43.1891 42.4027C42.4177 41.8029 41.4499 41.4444 40.3992 41.4444C37.8878 41.4444 35.8447 43.4876 35.8447 45.9989C35.8447 48.5103 37.8878 50.5535 40.3992 50.5535C42.9107 50.5535 44.9539 48.5103 44.9539 45.9989C44.9539 45.4287 44.8476 44.8832 44.6553 44.3797L47.7317 42.0065C48.3663 43.1813 48.7272 44.5248 48.7272 45.9512C48.7272 50.5433 44.9914 54.2792 40.3992 54.2792C35.8071 54.2792 32.0713 50.5433 32.0713 45.9512C32.0713 41.3591 35.8071 37.6232 40.3992 37.6232C42.6805 37.6232 44.75 38.5459 46.2556 40.0369L43.1891 42.4027ZM55.4093 59.6375L54.0855 60.9613L50.0415 56.9171C50.5104 56.5044 50.9526 56.0622 51.3653 55.5933L55.4093 59.6375ZM54.9603 37.6093C53.8058 37.6093 52.8665 36.67 52.8665 35.5157C52.8665 34.3613 53.8058 33.4221 54.9603 33.4221C56.1146 33.4221 57.0539 34.3613 57.0539 35.5157C57.0539 36.67 56.1146 37.6093 54.9603 37.6093ZM69.4408 47.6141C68.2863 47.6141 67.347 46.6749 67.347 45.5204C67.347 44.3659 68.2863 43.4268 69.4408 43.4268C70.5951 43.4268 71.5344 44.366 71.5344 45.5204C71.5344 46.6747 70.5951 47.6141 69.4408 47.6141ZM79.4453 37.6093C78.291 37.6093 77.3517 36.67 77.3517 35.5157C77.3517 34.3613 78.291 33.4221 79.4453 33.4221C80.5998 33.4221 81.5391 34.3613 81.5391 35.5157C81.5391 36.67 80.5998 37.6093 79.4453 37.6093Z" fill="#27FB82"/>
</g>
<defs>
<clipPath id="clip0">
<rect width="84" height="84" fill="white"/>
</clipPath>
</defs>
</svg>
