<svg width="280" height="368" viewBox="0 0 280 368" fill="none" xmlns="http://www.w3.org/2000/svg">
<g opacity="0.1">
<path d="M33.4608 29.1348C33.4608 2.23774 55.2651 -19.5666 82.1621 -19.5666C82.1621 7.33044 60.3578 29.1348 33.4608 29.1348Z" fill="#27FB82"/>
<path d="M83.9908 31.5202C95.7816 7.34535 124.938 -2.69387 149.113 9.09701C137.322 33.2719 108.166 43.3111 83.9908 31.5202Z" fill="#27FB82"/>
<path d="M128.491 56.1821C149.394 39.2553 180.061 42.4785 196.987 63.3814C176.084 80.3083 145.417 77.085 128.491 56.1821Z" fill="#27FB82"/>
<path d="M158.021 97.1373C184.229 91.0868 210.379 107.427 216.43 133.635C190.222 139.686 164.072 123.345 158.021 97.1373Z" fill="#27FB82"/>
<path d="M166.913 146.904C193.12 152.954 209.461 179.105 203.41 205.312C177.203 199.262 160.862 173.112 166.913 146.904Z" fill="#27FB82"/>
<path d="M153.356 195.673C174.259 212.6 177.482 243.267 160.555 264.169C139.652 247.243 136.429 216.576 153.356 195.673Z" fill="#27FB82"/>
<path d="M119.406 233.606C131.196 257.781 121.157 286.937 96.9823 298.728C85.1914 274.553 95.2307 245.397 119.406 233.606Z" fill="#27FB82"/>
<path d="M72.8856 253.316C72.8856 280.213 51.0813 302.017 24.1843 302.017C24.1843 275.12 45.9886 253.316 72.8856 253.316Z" fill="#27FB82"/>
<path d="M22.3556 250.93C10.5647 275.105 -18.5913 285.144 -42.7661 273.353C-30.9753 249.179 -1.81927 239.139 22.3556 250.93Z" fill="#27FB82"/>
<path d="M-13.0592 48.8445C-24.8501 24.6696 -14.8108 -4.48643 9.36404 -16.2773C21.1549 7.89758 11.1157 37.0536 -13.0592 48.8445Z" fill="#27FB82"/>
<path d="M138.307 -16.6553C154.117 -38.4155 184.573 -43.2393 206.334 -27.4296C190.524 -5.66945 160.067 -0.84564 138.307 -16.6553Z" fill="#27E4FB"/>
<path d="M183.029 17.2925C204.789 1.48283 235.246 6.30664 251.055 28.0668C229.295 43.8765 198.839 39.0527 183.029 17.2925Z" fill="#27E4FB"/>
<path d="M215.072 63.3985C240.652 55.0869 268.127 69.0862 276.439 94.6667C250.858 102.978 223.383 88.9791 215.072 63.3985Z" fill="#27E4FB"/>
<path d="M231.299 117.149C258.196 117.149 280 138.954 280 165.851C253.103 165.851 231.299 144.046 231.299 117.149Z" fill="#27E4FB"/>
<path d="M230.121 173.284C255.702 181.596 269.701 209.071 261.39 234.651C235.809 226.34 221.81 198.865 230.121 173.284Z" fill="#27E4FB"/>
<path d="M211.655 226.307C233.415 242.117 238.239 272.573 222.429 294.333C200.669 278.524 195.845 248.067 211.655 226.307Z" fill="#27E4FB"/>
<path d="M177.708 271.029C193.517 292.789 188.693 323.246 166.933 339.055C151.124 317.295 155.947 286.839 177.708 271.029Z" fill="#27E4FB"/>
<path d="M131.602 303.072C139.913 328.652 125.914 356.127 100.333 364.439C92.0218 338.858 106.021 311.383 131.602 303.072Z" fill="#27E4FB"/>
<path d="M77.8506 319.299C77.8506 346.196 56.0463 368 29.1492 368C29.1492 341.103 50.9536 319.299 77.8506 319.299Z" fill="#27E4FB"/>
<path d="M21.7161 318.121C13.4044 343.702 -14.0706 357.701 -39.6512 349.39C-31.3396 323.809 -3.86454 309.81 21.7161 318.121Z" fill="#27E4FB"/>
<path d="M30.3347 92.0514C30.3347 65.1544 52.139 43.35 79.036 43.35C79.036 70.2471 57.2317 92.0514 30.3347 92.0514Z" fill="#FFE925"/>
<path d="M73.2704 89.6632C92.2895 70.6442 123.125 70.6442 142.145 89.6632C123.125 108.682 92.2895 108.682 73.2704 89.6632Z" fill="#FFE925"/>
<path d="M105.319 118.335C132.216 118.335 154.021 140.139 154.021 167.036C127.124 167.036 105.319 145.232 105.319 118.335Z" fill="#FFE925"/>
<path d="M107.707 161.27C126.726 180.289 126.726 211.125 107.707 230.144C88.6883 211.125 88.6883 180.289 107.707 161.27Z" fill="#FFE925"/>
<path d="M79.036 193.319C79.036 220.216 57.2317 242.021 30.3347 242.021C30.3347 215.124 52.139 193.319 79.036 193.319Z" fill="#FFE925"/>
<path d="M36.1002 195.707C17.0811 214.726 -13.7548 214.726 -32.7739 195.707C-13.7548 176.688 17.0811 176.688 36.1002 195.707Z" fill="#FFE925"/>
<path d="M4.05127 167.036C-22.8458 167.036 -44.6501 145.232 -44.6501 118.335C-17.7531 118.335 4.05127 140.139 4.05127 167.036Z" fill="#FFE925"/>
<path d="M1.66307 124.1C-17.356 105.081 -17.356 74.2452 1.66307 55.2261C20.6821 74.2452 20.6821 105.081 1.66307 124.1Z" fill="#FFE925"/>
</g>
</svg>
