<svg width="429" height="517" viewBox="0 0 429 517" fill="none" xmlns="http://www.w3.org/2000/svg">
<g opacity="0.1">
<path d="M166.116 -24.035C202.385 -53.4047 255.595 -47.8121 284.965 -11.5435C248.696 17.8263 195.486 12.2336 166.116 -24.035Z" fill="#27FB82"/>
<path d="M217.355 47.0263C262.828 36.5281 308.201 64.8806 318.699 110.353C273.227 120.852 227.853 92.4992 217.355 47.0263Z" fill="#27FB82"/>
<path d="M232.782 133.376C278.255 143.874 306.608 189.248 296.109 234.721C250.636 224.223 222.284 178.849 232.782 133.376Z" fill="#27FB82"/>
<path d="M209.259 217.995C245.528 247.365 251.121 300.575 221.751 336.844C185.482 307.474 179.89 254.264 209.259 217.995Z" fill="#27FB82"/>
<path d="M150.353 283.813C170.811 325.759 153.392 376.348 111.446 396.806C90.9879 354.86 108.407 304.271 150.353 283.813Z" fill="#27FB82"/>
<path d="M69.6361 318.011C69.6361 364.68 31.8034 402.513 -14.8656 402.513C-14.8656 355.844 22.9671 318.011 69.6361 318.011Z" fill="#27FB82"/>
<path d="M316.343 -11.5138C360.728 -25.9353 408.4 -1.64519 422.821 42.7397C378.436 57.1612 330.764 32.8711 316.343 -11.5138Z" fill="#27E4FB"/>
<path d="M344.498 81.7491C391.167 81.7491 429 119.582 429 166.251C382.331 166.251 344.498 128.418 344.498 81.7491Z" fill="#27E4FB"/>
<path d="M342.456 179.148C386.84 193.57 411.13 241.242 396.709 285.627C352.324 271.205 328.034 223.533 342.456 179.148Z" fill="#27E4FB"/>
<path d="M310.415 271.149C348.171 298.58 356.541 351.425 329.109 389.181C291.353 361.75 282.983 308.905 310.415 271.149Z" fill="#27E4FB"/>
<path d="M251.512 348.746C278.944 386.502 270.574 439.347 232.818 466.778C205.387 429.022 213.756 376.177 251.512 348.746Z" fill="#27E4FB"/>
<path d="M171.514 404.343C185.936 448.728 161.646 496.4 117.261 510.821C102.839 466.436 127.129 418.764 171.514 404.343Z" fill="#27E4FB"/>
<path d="M78.2507 432.498C78.2507 479.167 40.418 517 -6.25102 517C-6.25102 470.331 31.5817 432.498 78.2507 432.498Z" fill="#27E4FB"/>
<path d="M-4.19409 38.2017C-4.19409 -8.46729 33.6386 -46.3 80.3076 -46.3C80.3076 0.369011 42.4749 38.2017 -4.19409 38.2017Z" fill="#FFE925"/>
<path d="M70.3037 34.0581C103.304 1.05809 156.807 1.05809 189.807 34.0581C156.807 67.058 103.304 67.058 70.3037 34.0581Z" fill="#FFE925"/>
<path d="M125.912 83.8055C172.581 83.8055 210.413 121.638 210.413 168.307C163.744 168.307 125.912 130.475 125.912 83.8055Z" fill="#FFE925"/>
<path d="M130.055 158.303C163.055 191.303 163.055 244.807 130.055 277.807C97.0554 244.807 97.0554 191.303 130.055 158.303Z" fill="#FFE925"/>
<path d="M80.3075 213.912C80.3075 260.581 42.4748 298.413 -4.1942 298.413C-4.1942 251.744 33.6385 213.912 80.3075 213.912Z" fill="#FFE925"/>
<path d="M5.8097 218.055C-27.1903 251.055 -80.6938 251.055 -113.694 218.055C-80.6938 185.055 -27.1903 185.055 5.8097 218.055Z" fill="#FFE925"/>
<path d="M-53.9421 93.8097C-86.9421 60.8097 -86.9421 7.30623 -53.9421 -25.6937C-20.9422 7.30623 -20.9422 60.8097 -53.9421 93.8097Z" fill="#FFE925"/>
</g>
</svg>
