<svg width="622" height="465" viewBox="0 0 622 465" fill="none" xmlns="http://www.w3.org/2000/svg">
<g opacity="0.1">
<path d="M508.71 -61.7814C543.98 -90.3423 595.725 -84.9037 624.285 -49.6339C589.016 -21.0729 537.271 -26.5116 508.71 -61.7814Z" fill="#27FB82"/>
<path d="M558.537 7.32302C602.758 -2.8861 646.882 24.6856 657.091 68.9062C612.87 79.1153 568.746 51.5436 558.537 7.32302Z" fill="#27FB82"/>
<path d="M573.54 91.2949C617.76 101.504 645.332 145.628 635.123 189.849C590.902 179.639 563.33 135.515 573.54 91.2949Z" fill="#27FB82"/>
<path d="M550.665 173.583C585.935 202.144 591.373 253.889 562.812 289.159C527.543 260.598 522.104 208.853 550.665 173.583Z" fill="#27FB82"/>
<path d="M493.38 237.589C513.275 278.379 496.336 327.575 455.545 347.47C435.65 306.679 452.59 257.484 493.38 237.589Z" fill="#27FB82"/>
<path d="M414.887 270.845C414.887 316.229 378.096 353.02 332.712 353.02C332.712 307.636 369.503 270.845 414.887 270.845Z" fill="#27FB82"/>
<path d="M329.627 266.82C309.732 307.611 260.536 324.55 219.746 304.655C239.641 263.865 288.836 246.925 329.627 266.82Z" fill="#27FB82"/>
<path d="M254.541 225.207C219.272 253.768 167.526 248.33 138.966 213.06C174.235 184.499 225.98 189.937 254.541 225.207Z" fill="#27FB82"/>
<path d="M204.714 156.103C160.493 166.313 116.369 138.741 106.16 94.5203C150.381 84.3111 194.505 111.883 204.714 156.103Z" fill="#27FB82"/>
<path d="M189.711 72.1311C145.491 61.9219 117.919 17.798 128.128 -26.4226C172.349 -16.2135 199.921 27.9105 189.711 72.1311Z" fill="#27FB82"/>
<path d="M649.034 225.273C685.751 251.949 693.89 303.339 667.214 340.055C630.498 313.379 622.358 261.99 649.034 225.273Z" fill="#27E4FB"/>
<path d="M591.754 300.733C618.43 337.45 610.291 388.839 573.575 415.515C546.899 378.799 555.038 327.409 591.754 300.733Z" fill="#27E4FB"/>
<path d="M513.959 354.799C527.983 397.962 504.362 444.321 461.2 458.345C447.175 415.183 470.797 368.824 513.959 354.799Z" fill="#27E4FB"/>
<path d="M423.264 382.179C423.264 427.563 386.473 464.354 341.089 464.354C341.089 418.97 377.88 382.179 423.264 382.179Z" fill="#27E4FB"/>
<path d="M328.547 380.193C314.523 423.355 268.164 446.976 225.001 432.952C239.026 389.79 285.385 366.168 328.547 380.193Z" fill="#27E4FB"/>
<path d="M239.08 349.034C212.404 385.75 161.015 393.89 124.299 367.214C150.975 330.498 202.364 322.358 239.08 349.034Z" fill="#27E4FB"/>
<path d="M163.62 291.754C126.904 318.43 75.5147 310.291 48.8388 273.574C85.555 246.898 136.945 255.038 163.62 291.754Z" fill="#27E4FB"/>
<path d="M109.554 213.959C66.3918 227.983 20.0327 204.362 6.00834 161.199C49.1709 147.175 95.53 170.796 109.554 213.959Z" fill="#27E4FB"/>
<path d="M82.1745 123.264C36.7908 123.264 0 86.4734 0 41.0896C45.3838 41.0896 82.1745 77.8804 82.1745 123.264Z" fill="#27E4FB"/>
<path d="M84.1609 28.5472C40.9984 14.5229 17.3773 -31.8363 31.4016 -74.9988C74.5641 -60.9744 98.1853 -14.6153 84.1609 28.5472Z" fill="#27E4FB"/>
<path d="M415.536 -5.28811C447.627 -37.3793 499.657 -37.3793 531.748 -5.28811C499.657 26.803 447.627 26.803 415.536 -5.28811Z" fill="#FFE925"/>
<path d="M469.612 43.0894C514.996 43.0894 551.787 79.8801 551.787 125.264C506.403 125.264 469.612 88.4731 469.612 43.0894Z" fill="#FFE925"/>
<path d="M473.642 115.535C505.733 147.627 505.733 199.657 473.642 231.748C441.551 199.657 441.551 147.627 473.642 115.535Z" fill="#FFE925"/>
<path d="M425.264 169.613C425.264 214.996 388.473 251.787 343.089 251.787C343.089 206.403 379.88 169.613 425.264 169.613Z" fill="#FFE925"/>
<path d="M352.818 173.642C320.727 205.733 268.697 205.733 236.605 173.642C268.697 141.55 320.727 141.55 352.818 173.642Z" fill="#FFE925"/>
<path d="M298.741 125.264C253.357 125.264 216.567 88.4732 216.567 43.0895C261.95 43.0895 298.741 79.8803 298.741 125.264Z" fill="#FFE925"/>
<path d="M294.712 52.818C262.62 20.7269 262.62 -31.3032 294.712 -63.3943C326.803 -31.3032 326.803 20.7269 294.712 52.818Z" fill="#FFE925"/>
</g>
</svg>
