<svg width="512" height="875" viewBox="0 0 512 875" fill="none" xmlns="http://www.w3.org/2000/svg">
<g opacity="0.1">
<path d="M473.161 97.5711C473.161 35.9292 523.132 -14.0414 584.774 -14.0414C584.774 47.6005 534.803 97.5711 473.161 97.5711Z" fill="#27FB82"/>
<path d="M563.514 611.343C563.514 672.985 513.544 722.956 451.902 722.956C451.902 661.314 501.873 611.343 563.514 611.343Z" fill="#27FB82"/>
<path d="M447.711 605.876C420.689 661.28 353.87 684.287 298.467 657.265C325.489 601.862 392.308 578.854 447.711 605.876Z" fill="#27FB82"/>
<path d="M345.727 549.356C297.823 588.149 227.541 580.762 188.748 532.857C236.653 494.064 306.935 501.451 345.727 549.356Z" fill="#27FB82"/>
<path d="M278.05 455.497C217.988 469.363 158.057 431.914 144.19 371.852C204.252 357.986 264.183 395.435 278.05 455.497Z" fill="#27FB82"/>
<path d="M257.673 341.442C197.611 327.576 160.162 267.645 174.029 207.583C234.091 221.449 271.54 281.38 257.673 341.442Z" fill="#27FB82"/>
<path d="M288.742 229.676C240.838 190.883 233.451 120.601 272.243 72.6966C320.148 111.489 327.535 181.771 288.742 229.676Z" fill="#27FB82"/>
<path d="M366.548 142.741C339.526 87.3379 362.534 20.5189 417.937 -6.50315C444.959 48.9002 421.952 115.719 366.548 142.741Z" fill="#27FB82"/>
<path d="M574.893 762.561C574.893 824.203 524.922 874.174 463.281 874.174C463.281 812.532 513.251 762.561 574.893 762.561Z" fill="#27E4FB"/>
<path d="M446.245 759.863C427.197 818.488 364.23 850.571 305.605 831.523C324.654 772.898 387.62 740.815 446.245 759.863Z" fill="#27E4FB"/>
<path d="M324.728 717.542C288.495 767.412 218.696 778.467 168.827 742.235C205.059 692.365 274.858 681.31 324.728 717.542Z" fill="#27E4FB"/>
<path d="M222.235 639.742C172.366 675.975 102.567 664.919 66.3347 615.05C116.204 578.818 186.003 589.873 222.235 639.742Z" fill="#27E4FB"/>
<path d="M148.801 534.078C90.1759 553.126 27.2092 521.043 8.1608 462.418C66.7857 443.37 129.752 475.453 148.801 534.078Z" fill="#27E4FB"/>
<path d="M111.613 410.893C49.9706 410.893 0 360.923 0 299.281C61.6419 299.281 111.613 349.251 111.613 410.893Z" fill="#27E4FB"/>
<path d="M114.311 282.245C55.6856 263.197 23.6025 200.23 42.6509 141.605C101.276 160.653 133.359 223.62 114.311 282.245Z" fill="#27E4FB"/>
<path d="M156.631 160.728C106.762 124.496 95.7066 54.6968 131.939 4.82743C181.808 41.0596 192.863 110.859 156.631 160.728Z" fill="#27E4FB"/>
<path d="M234.431 58.2353C198.199 8.36593 209.254 -61.4332 259.123 -97.6654C295.356 -47.796 284.301 22.0031 234.431 58.2353Z" fill="#27E4FB"/>
<path d="M465.997 241.762C465.997 180.12 515.968 130.149 577.61 130.149C577.61 191.791 527.639 241.762 465.997 241.762Z" fill="#FFE925"/>
<path d="M577.61 473.845C577.61 535.487 527.639 585.458 465.997 585.458C465.997 523.816 515.968 473.845 577.61 473.845Z" fill="#FFE925"/>
<path d="M479.21 479.318C435.623 522.905 364.954 522.905 321.366 479.318C364.954 435.73 435.623 435.73 479.21 479.318Z" fill="#FFE925"/>
<path d="M405.762 413.61C344.12 413.61 294.149 363.639 294.149 301.997C355.791 301.997 405.762 351.968 405.762 413.61Z" fill="#FFE925"/>
<path d="M400.288 315.211C356.701 271.623 356.701 200.954 400.288 157.367C443.876 200.954 443.876 271.623 400.288 315.211Z" fill="#FFE925"/>
</g>
</svg>
