<svg width="48" height="48" viewBox="0 0 48 48" fill="none" xmlns="http://www.w3.org/2000/svg">
<path d="M21.8766 12.0938C21.8766 9.24374 24.187 6.93335 27.037 6.93335C27.037 9.78337 24.7266 12.0938 21.8766 12.0938Z" fill="#27FB82"/>
<path d="M27.2308 12.3465C28.4802 9.78488 31.5696 8.72112 34.1311 9.97049C32.8818 12.5321 29.7924 13.5958 27.2308 12.3465Z" fill="#27FB82"/>
<path d="M31.946 14.9597C34.1609 13.1662 37.4104 13.5077 39.204 15.7226C36.9891 17.5162 33.7396 17.1746 31.946 14.9597Z" fill="#27FB82"/>
<path d="M35.0751 19.2994C37.8521 18.6582 40.623 20.3897 41.2641 23.1667C38.4871 23.8078 35.7162 22.0763 35.0751 19.2994Z" fill="#27FB82"/>
<path d="M36.0172 24.5726C38.7942 25.2137 40.5256 27.9846 39.8845 30.7616C37.1075 30.1205 35.3761 27.3496 36.0172 24.5726Z" fill="#27FB82"/>
<path d="M34.5807 29.7402C36.7956 31.5338 37.1371 34.7832 35.3436 36.9981C33.1287 35.2045 32.7872 31.9551 34.5807 29.7402Z" fill="#27FB82"/>
<path d="M30.9834 33.7596C32.2327 36.3212 31.169 39.4105 28.6074 40.6599C27.358 38.0983 28.4218 35.009 30.9834 33.7596Z" fill="#27FB82"/>
<path d="M26.0541 35.848C26.0541 38.6981 23.7437 41.0085 20.8937 41.0085C20.8937 38.1584 23.2041 35.848 26.0541 35.848Z" fill="#27FB82"/>
<path d="M20.6999 35.5953C19.4506 38.1569 16.3612 39.2207 13.7996 37.9713C15.049 35.4097 18.1383 34.346 20.6999 35.5953Z" fill="#27FB82"/>
<path d="M15.9847 32.9821C13.7698 34.7756 10.5203 34.4341 8.72675 32.2192C10.9416 30.4256 14.1911 30.7672 15.9847 32.9821Z" fill="#27FB82"/>
<path d="M12.8557 28.6425C10.0787 29.2836 7.30779 27.5522 6.66667 24.7752C9.44365 24.1341 12.2145 25.8655 12.8557 28.6425Z" fill="#27FB82"/>
<path d="M11.9135 23.3692C9.13655 22.7281 7.4051 19.9572 8.04622 17.1802C10.8232 17.8213 12.5546 20.5922 11.9135 23.3692Z" fill="#27FB82"/>
<path d="M13.35 18.2016C11.1351 16.408 10.7936 13.1586 12.5872 10.9437C14.802 12.7373 15.1436 15.9867 13.35 18.2016Z" fill="#27FB82"/>
<path d="M16.9474 14.1822C15.698 11.6206 16.7617 8.53126 19.3233 7.28189C20.5727 9.84347 19.5089 12.9328 16.9474 14.1822Z" fill="#27FB82"/>
<path d="M21.4198 5.16041C21.4198 2.31039 23.7302 0 26.5802 0C26.5802 2.85002 24.2698 5.16041 21.4198 5.16041Z" fill="#27E4FB"/>
<path d="M27.3678 5.28522C28.2485 2.5747 31.1598 1.09133 33.8703 1.97203C32.9896 4.68256 30.0783 6.16592 27.3678 5.28522Z" fill="#27E4FB"/>
<path d="M32.9862 7.24175C34.6614 4.93604 37.8886 4.42491 40.1943 6.10011C38.5191 8.40582 35.2919 8.91695 32.9862 7.24175Z" fill="#27E4FB"/>
<path d="M37.7249 10.8389C40.0306 9.16371 43.2578 9.67484 44.933 11.9806C42.6273 13.6558 39.4001 13.1446 37.7249 10.8389Z" fill="#27E4FB"/>
<path d="M41.1202 15.7244C43.8307 14.8437 46.742 16.327 47.6227 19.0375C44.9121 19.9182 42.0009 18.4349 41.1202 15.7244Z" fill="#27E4FB"/>
<path d="M42.8396 21.4198C45.6896 21.4198 48 23.7302 48 26.5802C45.15 26.5802 42.8396 24.2698 42.8396 21.4198Z" fill="#27E4FB"/>
<path d="M42.7148 27.3679C45.4254 28.2486 46.9087 31.1598 46.028 33.8704C43.3175 32.9897 41.8341 30.0784 42.7148 27.3679Z" fill="#27E4FB"/>
<path d="M40.7581 32.9861C43.0638 34.6613 43.575 37.8885 41.8998 40.1942C39.5941 38.519 39.0829 35.2918 40.7581 32.9861Z" fill="#27E4FB"/>
<path d="M37.1611 37.7249C38.8363 40.0306 38.3251 43.2578 36.0194 44.933C34.3442 42.6273 34.8554 39.4001 37.1611 37.7249Z" fill="#27E4FB"/>
<path d="M32.2756 41.1202C33.1563 43.8307 31.673 46.742 28.9625 47.6227C28.0818 44.9121 29.5651 42.0009 32.2756 41.1202Z" fill="#27E4FB"/>
<path d="M26.5802 42.8395C26.5802 45.6895 24.2698 47.9999 21.4198 47.9999C21.4198 45.1499 23.7302 42.8395 26.5802 42.8395Z" fill="#27E4FB"/>
<path d="M20.6322 42.7147C19.7515 45.4252 16.8402 46.9086 14.1297 46.0279C15.0104 43.3174 17.9217 41.834 20.6322 42.7147Z" fill="#27E4FB"/>
<path d="M15.0138 40.7582C13.3386 43.0639 10.1114 43.575 7.80573 41.8998C9.48093 39.5941 12.7081 39.083 15.0138 40.7582Z" fill="#27E4FB"/>
<path d="M10.275 37.1611C7.96931 38.8363 4.74214 38.3251 3.06695 36.0194C5.37266 34.3442 8.59982 34.8553 10.275 37.1611Z" fill="#27E4FB"/>
<path d="M6.87983 32.2756C4.1693 33.1563 1.25803 31.673 0.377331 28.9624C3.08786 28.0817 5.99912 29.5651 6.87983 32.2756Z" fill="#27E4FB"/>
<path d="M5.16041 26.5802C2.31039 26.5802 0 24.2698 0 21.4198C2.85002 21.4198 5.16041 23.7302 5.16041 26.5802Z" fill="#27E4FB"/>
<path d="M5.28516 20.6321C2.57463 19.7514 1.09127 16.8401 1.97197 14.1296C4.6825 15.0103 6.16586 17.9215 5.28516 20.6321Z" fill="#27E4FB"/>
<path d="M7.24181 15.0138C4.9361 13.3386 4.42497 10.1114 6.10017 7.80573C8.40588 9.48093 8.91701 12.7081 7.24181 15.0138Z" fill="#27E4FB"/>
<path d="M10.8389 10.2751C9.16374 7.96943 9.67487 4.74227 11.9806 3.06707C13.6558 5.37278 13.1446 8.59994 10.8389 10.2751Z" fill="#27E4FB"/>
<path d="M15.7243 6.8798C14.8436 4.16927 16.327 1.258 19.0375 0.3773C19.9182 3.08783 18.4348 5.99909 15.7243 6.8798Z" fill="#27E4FB"/>
<path d="M21.7132 18.9096C21.7132 16.0595 24.0236 13.7491 26.8736 13.7491C26.8736 16.5992 24.5632 18.9096 21.7132 18.9096Z" fill="#FFE925"/>
<path d="M26.2627 18.6565C28.2779 16.6412 31.5453 16.6412 33.5606 18.6565C31.5453 20.6718 28.2779 20.6718 26.2627 18.6565Z" fill="#FFE925"/>
<path d="M29.6586 21.6945C32.5086 21.6945 34.819 24.0049 34.819 26.8549C31.969 26.8549 29.6586 24.5445 29.6586 21.6945Z" fill="#FFE925"/>
<path d="M29.9116 26.244C31.9269 28.2593 31.9269 31.5267 29.9116 33.5419C27.8964 31.5267 27.8964 28.2593 29.9116 26.244Z" fill="#FFE925"/>
<path d="M26.8736 29.6398C26.8736 32.4898 24.5632 34.8002 21.7132 34.8002C21.7132 31.9502 24.0236 29.6398 26.8736 29.6398Z" fill="#FFE925"/>
<path d="M22.3241 29.893C20.3089 31.9083 17.0415 31.9083 15.0262 29.893C17.0415 27.8777 20.3089 27.8777 22.3241 29.893Z" fill="#FFE925"/>
<path d="M18.9282 26.8549C16.0782 26.8549 13.7678 24.5446 13.7678 21.6945C16.6178 21.6945 18.9282 24.0049 18.9282 26.8549Z" fill="#FFE925"/>
<path d="M18.6752 22.3055C16.6599 20.2903 16.6599 17.0229 18.6752 15.0076C20.6905 17.0229 20.6905 20.2903 18.6752 22.3055Z" fill="#FFE925"/>
</svg>
